<svg width="40" height="49" viewBox="0 0 40 49" fill="none" xmlns="http://www.w3.org/2000/svg">
<path d="M32.244 44.6014L26.1196 37.5704L26.3556 42.3925L23.2837 45.9741L32.244 44.6014Z" fill="#F5F5F7"/>
<path d="M27.1003 40.7131L27.0115 40.6969L26.9123 40.6775L26.71 40.6364L26.2999 40.5484C26.0253 40.488 25.7496 40.4235 25.4742 40.3568C24.9236 40.2229 24.3727 40.0782 23.8245 39.9244C22.7275 39.6162 21.6409 39.2707 20.5647 38.8879C19.4923 38.5053 18.4302 38.0836 17.3918 37.6177C16.3534 37.1517 15.3345 36.6416 14.3527 36.0786C13.3708 35.5198 12.4263 34.8962 11.5251 34.2119C10.6308 33.5346 9.80027 32.7747 9.04412 31.9419C8.29354 31.1179 7.65145 30.1984 7.13379 29.2063C6.62074 28.2118 6.26772 27.14 6.08806 26.0312C6.04229 25.7542 6.01445 25.4694 5.99386 25.184C5.97326 24.8987 5.96212 24.6131 5.95843 24.3266C5.95339 23.751 5.98129 23.1754 6.04197 22.6027C6.16618 21.4498 6.40126 20.3114 6.74386 19.2041C7.09002 18.086 7.51746 16.9953 8.02266 15.941C8.53039 14.8802 9.09739 13.8494 9.72087 12.8539C10.9669 10.8557 12.4076 8.97638 13.967 7.20225C14.747 6.31561 15.5566 5.45605 16.3958 4.62354C16.8153 4.20762 17.2416 3.79878 17.6748 3.39701C18.1087 2.99675 18.5485 2.60198 19.0025 2.22395C18.534 2.5833 18.0787 2.96019 17.6284 3.34338C17.1782 3.72656 16.7361 4.11977 16.2995 4.51948C15.4273 5.31933 14.5812 6.14895 13.7613 7.00833C12.1249 8.72654 10.5975 10.5619 9.25214 12.5395C8.57613 13.5292 7.95656 14.5574 7.39651 15.6188C6.83144 16.687 6.34558 17.7962 5.94296 18.9372C5.53643 20.0885 5.24166 21.277 5.06288 22.4857C4.97494 23.0943 4.92167 23.7075 4.90331 24.3222C4.89298 24.6298 4.89322 24.9383 4.90403 25.2477C4.91424 25.5567 4.93504 25.8642 4.95863 26.1777C5.06798 27.4331 5.37409 28.662 5.86541 29.8178C6.3594 30.9703 6.99857 32.0523 7.76698 33.0369C8.52734 34.0131 9.37497 34.9157 10.2991 35.7333C11.215 36.5441 12.1824 37.2929 13.1952 37.9749C14.2016 38.658 15.2426 39.283 16.3059 39.8602C17.3691 40.4374 18.4542 40.9673 19.5558 41.4577C20.6574 41.948 21.7749 42.3986 22.9079 42.8117C23.4743 43.0177 24.0453 43.2147 24.6208 43.4027C24.9085 43.4969 25.198 43.5878 25.4895 43.6757L25.9318 43.8036L26.1556 43.8675L26.2704 43.8989L26.3955 43.9323L27.1003 40.7131Z" fill="#F5F5F7"/>
</svg>
